<svg width="20" height="23" viewBox="0 0 20 23" fill="none" xmlns="http://www.w3.org/2000/svg">
<circle cx="5.5" cy="6.5" r="5.5" fill="#B3B3B3"/>
<circle cx="5.5" cy="6.5" r="5.5" fill="#B3B3B3"/>
<path d="M5.76221 5.6145H8.04199V6.59717H5.76221V9.18018H4.71777V6.59717H2.43799V5.6145H4.71777V3.22803H5.76221V5.6145Z" fill="#1F1919"/>
<path fill-rule="evenodd" clip-rule="evenodd" d="M3.5 23C5.433 23 7 21.433 7 19.5C7 17.567 5.433 16 3.5 16C1.567 16 0 17.567 0 19.5C0 21.433 1.567 23 3.5 23ZM3.5 21.8333C4.78866 21.8333 5.83333 20.7887 5.83333 19.5C5.83333 18.2113 4.78866 17.1667 3.5 17.1667C2.21134 17.1667 1.16667 18.2113 1.16667 19.5C1.16667 20.7887 2.21134 21.8333 3.5 21.8333Z" fill="#C4C4C4"/>
<path fill-rule="evenodd" clip-rule="evenodd" d="M15.5 21C17.433 21 19 19.433 19 17.5C19 15.567 17.433 14 15.5 14C13.567 14 12 15.567 12 17.5C12 19.433 13.567 21 15.5 21ZM15.5 19.8333C16.7887 19.8333 17.8333 18.7887 17.8333 17.5C17.8333 16.2113 16.7887 15.1667 15.5 15.1667C14.2113 15.1667 13.1667 16.2113 13.1667 17.5C13.1667 18.7887 14.2113 19.8333 15.5 19.8333Z" fill="#C4C4C4"/>
<path d="M8.51161 5.39947L19 3.40198L19 4.40198L8.50036 6.40201L8.51161 5.39947Z" fill="#C4C4C4"/>
<path d="M6 11H7V19L6 18.4667V11Z" fill="#C4C4C4"/>
<path d="M18 4.46429L19 4V17L18 16.0715V4.46429Z" fill="#C4C4C4"/>
</svg>
